<svg version="1.2" xmlns="http://www.w3.org/2000/svg" viewBox="0 0 1534 1490" width="1534" height="1490">
	<title>logo_homepage_schroders_white-svg</title>
	<style>
		.s0 { fill: #002a5e } 
	</style>
	<path id="_Compound_Path_" class="s0" d="m52.1 472.2c34.3-86.8 84.6-166.4 148.3-234.7 63.7-68.2 139.7-123.9 223.9-164 84.3-40.2 175.3-64.2 268.4-70.7v318c-97.9 19.7-186 72.8-249.3 150.1-63.3 77.3-97.9 174.2-97.9 274.1 0 100 34.6 196.8 97.9 274.1 63.3 77.4 151.4 130.4 249.3 150.2v320.2c-93.5-6.1-185-29.8-269.6-70-84.7-40.1-161-96-224.8-164.6-63.8-68.6-114-148.7-147.9-236.1-34-87.3-51-180.3-50.3-274 0.1-93.3 17.8-185.8 52-272.6zm781.7-469.4c189.5 11.4 367.5 94.8 497.6 233.1 130.1 138.3 202.5 321 202.3 510.8-0.2 189.9-72.9 372.5-203.2 510.5-130.3 138.1-308.5 221.2-498 232.3v-322.9c98-19.7 186.1-72.8 249.4-150.1 63.3-77.3 97.9-174.2 97.9-274.1 0-99.9-34.6-196.8-97.9-274.1-63.3-77.3-151.4-130.4-249.4-150.1v-318.1z"/>
</svg>